<?xml version="1.0" standalone="no"?>
<!DOCTYPE svg PUBLIC "-//W3C//DTD SVG 20010904//EN"
 "http://www.w3.org/TR/2001/REC-SVG-20010904/DTD/svg10.dtd">
<svg version="1.0" xmlns="http://www.w3.org/2000/svg"
 width="546.000000pt" height="536.000000pt" viewBox="0 0 546.000000 536.000000"
 preserveAspectRatio="xMidYMid meet">
<metadata>
Created by potrace 1.15, written by Peter Selinger 2001-2017
</metadata>
<g transform="translate(0.000000,536.000000) scale(0.100000,-0.100000)"
fill="#000000" stroke="none">
<path d="M161 5296 c-8 -10 -10 -180 -9 -627 l3 -614 625 0 625 0 0 625 0 625
-616 3 c-512 2 -618 0 -628 -12z m1064 -616 l0 -445 -445 0 -445 0 -3 435 c-1
239 0 441 3 448 3 10 98 12 447 10 l443 -3 0 -445z"/>
<path d="M515 4937 c-3 -7 -4 -127 -3 -267 l3 -255 268 -3 267 -2 -2 267 -3
268 -263 3 c-206 2 -264 0 -267 -11z"/>
<path d="M1777 5303 c-4 -3 -7 -44 -7 -90 l0 -83 -90 0 -90 0 0 -180 0 -179
88 -3 87 -3 3 -87 3 -88 -91 0 -90 0 0 -360 0 -360 -180 0 -181 0 3 -87 3 -88
175 0 175 0 3 88 3 87 174 0 175 0 0 -175 0 -174 -82 -3 -83 -3 -3 -87 -3 -88
-89 0 -89 0 -3 88 -3 87 -355 0 -355 0 -3 -177 -2 -178 180 0 180 0 0 -90 0
-89 88 -3 87 -3 3 -87 3 -88 -91 0 -90 0 0 -90 0 -90 268 -2 267 -3 3 -88 3
-87 84 0 84 0 3 -87 3 -88 178 -3 177 -2 0 90 0 90 180 0 180 0 0 180 0 180
180 0 180 0 0 -90 0 -89 88 -3 87 -3 0 -85 0 -85 -177 -3 -178 -2 0 -90 0 -90
-180 0 -180 0 2 -177 3 -178 88 -3 87 -3 0 -84 0 -85 -180 0 -180 0 0 85 0 85
-90 0 -90 0 0 -265 0 -266 -87 3 -88 3 -2 75 c-1 41 -2 81 -2 88 -1 9 -43 12
-176 12 l-175 0 0 175 0 175 90 0 90 0 0 -85 0 -86 86 3 85 3 0 170 0 170
-535 3 -536 2 0 90 0 90 -90 0 -90 0 0 -90 0 -90 -90 0 -90 0 0 180 0 181 -87
-3 -88 -3 -3 -177 -2 -177 -88 -3 -87 -3 -3 -73 c-4 -98 1 -104 97 -100 l76 3
3 88 3 87 89 0 90 0 0 -265 0 -265 90 0 89 0 3 87 3 88 88 3 87 3 0 -91 0 -90
90 0 91 0 -3 88 -3 87 -87 3 -88 3 0 84 0 85 270 0 270 0 0 -85 0 -84 -87 -3
-88 -3 -3 -87 -3 -88 181 0 180 0 0 -180 0 -180 175 0 175 0 0 -90 0 -90 -85
0 -85 0 0 -90 0 -90 -90 0 -90 0 0 -90 0 -91 88 3 87 3 3 88 3 87 84 0 84 0 3
-87 3 -88 88 -3 87 -3 0 -89 0 -90 -265 0 -265 0 2 -177 3 -178 260 0 260 0 3
88 3 87 89 0 89 0 3 -87 3 -88 175 0 175 0 3 88 3 87 -181 0 -180 0 2 357 3
358 178 3 177 2 0 -90 0 -90 -90 0 -90 0 2 -177 3 -178 175 0 175 0 3 88 3 87
89 0 90 0 2 -177 3 -178 87 -3 87 -3 3 -87 3 -87 85 0 85 0 3 88 3 87 174 0
175 0 0 -85 c0 -98 0 -98 110 -93 l65 3 3 87 3 88 177 2 177 3 3 177 2 178 90
0 90 0 2 -267 3 -268 85 0 85 0 3 87 3 87 87 3 87 3 3 88 3 87 89 0 90 0 2
-177 3 -178 65 -3 c118 -6 110 -19 110 183 l0 174 88 3 87 3 0 85 0 85 -87 3
-87 3 -3 87 -3 87 -177 3 -178 2 0 90 0 90 268 2 267 3 0 85 0 85 -87 3 -88 3
0 89 0 89 88 3 87 3 3 155 c1 85 0 165 -3 177 -5 22 -11 23 -90 23 l-85 0 0
85 0 85 85 0 c79 0 85 1 90 22 3 13 4 133 3 268 l-3 245 -87 3 -87 3 -3 -88
-3 -88 -87 -3 -87 -3 -3 -87 -3 -87 -85 0 -85 0 -3 178 -2 177 -90 0 -90 0 0
-355 0 -355 -90 0 -90 0 0 445 0 445 448 2 447 3 0 85 0 85 -177 3 -178 2 0
90 0 90 178 2 177 3 0 85 0 85 -88 3 -87 3 2 177 3 177 85 5 85 5 0 80 0 80
-85 5 -85 5 -3 88 -3 87 -179 0 -180 0 0 -90 0 -90 -90 0 -90 0 0 90 0 90
-270 0 -270 0 0 -90 0 -91 -87 3 -88 3 -3 628 -2 627 -175 0 -175 0 0 90 0 90
175 0 176 0 -3 88 -3 87 -170 0 -170 0 -3 -87 -3 -88 -177 -2 -177 -3 -3 -87
-3 -88 -89 0 -89 0 -3 88 -3 87 -87 3 -87 3 -3 87 -3 87 -85 0 -85 0 -3 -87
-3 -88 91 0 90 0 0 -90 0 -89 -87 -3 -88 -3 -3 -87 -3 -88 91 0 90 0 0 -270 0
-270 -90 0 -90 0 0 180 0 181 -87 -3 -88 -3 -3 -177 -2 -178 -90 0 -90 0 0 90
0 91 -87 -3 -88 -3 -3 -87 -3 -88 -90 0 -90 0 2 88 2 87 -86 3 -87 3 0 89 0
90 265 0 264 0 3 88 3 87 88 3 87 3 -2 267 -3 267 -85 0 -85 0 -3 -87 -3 -87
-87 -3 -87 -3 -3 -87 -3 -88 -174 0 -175 0 0 90 0 89 86 3 86 3 0 77 c0 42 -3
81 -7 87 -7 12 -147 15 -158 4z m1243 -443 l0 -90 -90 0 -90 0 0 90 0 90 90 0
90 0 0 -90z m538 3 l-3 -88 -87 -3 -88 -3 0 91 0 90 90 0 91 0 -3 -87z m-180
-365 l3 -88 89 0 90 0 0 90 0 90 85 0 85 0 0 -90 0 -90 -85 0 -85 0 0 -90 0
-90 85 0 85 0 0 -355 0 -355 -85 0 -84 0 -3 83 -3 82 -267 3 -268 2 0 -85 0
-85 268 -2 267 -3 0 -85 0 -85 -87 -3 -88 -3 0 -89 0 -90 175 0 175 0 2 178 3
177 85 0 85 0 3 -267 2 -268 361 0 360 0 -3 88 -3 87 -178 3 -178 2 3 88 3 87
88 3 88 3 -3 87 -3 87 -177 3 -178 2 0 85 0 85 270 0 270 0 0 -85 0 -85 90 0
90 0 0 85 0 85 90 0 90 0 0 -175 0 -174 -87 -3 -88 -3 -3 -87 -3 -87 88 -3 88
-3 3 -87 3 -88 -181 0 -180 0 0 -90 0 -90 -267 -2 -268 -3 -3 -177 -2 -178 90
0 90 0 -2 -267 -3 -268 -87 -3 -88 -3 0 -84 0 -85 -90 0 -90 0 0 85 0 85 -90
0 -90 0 2 -532 3 -533 178 -3 177 -2 0 -90 0 -89 -87 -3 -88 -3 -3 -88 -3 -88
-87 3 -87 3 -3 88 -3 87 -84 0 -84 0 -3 88 -3 87 -177 3 -177 2 -3 -87 -3 -88
-87 -3 -88 -3 0 91 0 90 90 0 90 0 0 270 0 270 178 2 177 3 0 85 0 85 -178 3
-178 2 3 88 3 87 175 5 175 5 3 173 2 172 85 0 85 0 0 180 0 180 -85 0 -85 0
-2 -177 -3 -178 -87 -3 -87 -3 -3 -87 -3 -87 -177 -3 -178 -2 0 -85 0 -85 -90
0 -90 0 0 85 0 85 -90 0 -90 0 0 90 0 89 88 3 87 3 3 88 3 87 89 0 89 0 3 -87
3 -88 178 -3 177 -2 -2 447 -3 448 -87 3 -87 3 -3 -88 -3 -88 -87 -3 -88 -3 0
91 0 90 90 0 91 0 -3 88 -3 87 -177 3 -178 2 0 -90 0 -90 -90 0 -90 0 0 -90 0
-90 -90 0 -91 0 3 88 3 87 87 3 87 3 3 87 3 87 88 3 88 3 -3 87 -3 87 -88 3
-88 3 3 87 3 87 88 3 87 3 0 84 0 84 -87 3 -88 3 -3 88 -3 87 -89 0 -90 0 0
-355 0 -354 -87 -3 -88 -3 -3 -87 -3 -88 -177 -2 -177 -3 -3 -87 -3 -88 181 0
180 0 0 -180 0 -180 -180 0 -180 0 0 180 0 180 -175 0 -175 0 0 180 0 179 88
3 87 3 3 88 3 87 174 0 174 0 3 88 3 87 88 3 87 3 0 84 0 84 -87 3 -88 3 -3
87 -3 87 -87 3 -87 3 -3 88 -3 87 -84 0 -85 0 0 90 0 90 85 0 85 0 0 -90 0
-90 90 0 90 0 0 90 0 90 90 0 90 0 2 -177 3 -178 88 -3 87 -3 0 181 0 180 90
0 90 0 0 -180 0 -180 90 0 90 0 0 180 0 180 90 0 90 0 0 180 0 180 178 -2 177
-3 3 -87z m-1970 -1250 l3 -88 -91 0 -90 0 0 83 c0 46 3 87 7 91 4 4 43 5 88
4 l80 -3 3 -87z m-538 -1258 l0 -91 -87 3 -88 3 -3 88 -3 87 91 0 90 0 0 -90z
m4120 -175 l0 -85 90 0 90 0 0 -90 0 -90 -90 0 -90 0 0 90 0 90 -90 0 -90 0 0
-180 0 -179 88 -3 87 -3 3 -87 3 -88 -91 0 -90 0 0 90 0 90 -90 0 -90 0 0 180
0 180 90 0 90 0 0 85 0 85 90 0 90 0 0 -85z m-1972 -447 l2 -178 -89 0 -90 0
-3 88 -3 87 -85 0 -85 0 -3 -87 -3 -88 -89 0 -90 0 0 173 c0 96 3 177 7 180 4
4 124 6 267 5 l261 -3 3 -177z m1430 -91 l2 -267 -267 2 -268 3 -3 255 c-1
140 0 260 3 267 3 11 61 13 267 11 l263 -3 3 -268z m-1608 -537 l0 -91 -87 3
-88 3 -3 88 -3 87 91 0 90 0 0 -90z m1970 -90 l0 -181 -87 3 -88 3 -3 88 -3
87 -89 0 -90 0 0 90 0 90 180 0 180 0 0 -180z m360 -90 l0 -90 -90 0 -90 0 0
90 0 90 90 0 90 0 0 -90z"/>
<path d="M3200 4320 l0 -90 -90 0 -90 0 0 -180 0 -180 -90 0 -90 0 0 -90 0
-90 90 0 90 0 0 90 0 90 178 2 177 3 3 87 3 87 87 3 87 3 3 88 3 87 -91 0 -90
0 0 90 0 90 -90 0 -90 0 0 -90z m180 -180 l0 -90 -90 0 -90 0 0 90 0 90 90 0
90 0 0 -90z"/>
<path d="M3560 2890 l0 -90 175 0 175 0 0 90 0 90 -175 0 -175 0 0 -90z"/>
<path d="M3914 2427 c-3 -8 -4 -47 -2 -88 l3 -74 88 -3 87 -3 0 91 0 90 -85 0
c-63 0 -87 -4 -91 -13z"/>
<path d="M3380 1100 l0 -91 88 3 87 3 0 85 0 85 -87 3 -88 3 0 -91z"/>
<path d="M4097 1363 c-4 -3 -7 -44 -7 -90 l0 -83 90 0 90 0 0 90 0 90 -83 0
c-46 0 -87 -3 -90 -7z"/>
<path d="M4095 5298 c-3 -7 -4 -290 -3 -628 l3 -615 625 0 625 0 3 614 c1 445
-1 618 -9 627 -16 20 -1237 21 -1244 2z m1070 -618 l0 -445 -445 0 -445 0 -3
435 c-1 239 0 441 3 448 3 10 98 12 447 10 l443 -3 0 -445z"/>
<path d="M4457 4943 c-4 -3 -7 -125 -7 -270 l0 -263 268 2 267 3 0 265 0 265
-261 3 c-143 1 -263 -1 -267 -5z"/>
<path d="M154 3857 c-2 -7 -3 -85 -2 -172 l3 -160 88 -3 87 -3 0 -89 0 -90
-85 0 c-98 0 -98 0 -93 -110 l3 -65 268 -3 267 -2 0 264 0 265 88 3 87 3 3 88
3 87 -91 0 -90 0 0 -90 0 -90 -90 0 -90 0 0 90 0 90 -175 0 c-134 0 -177 -3
-181 -13z m356 -252 l0 -85 -90 0 -90 0 0 85 0 85 90 0 90 0 0 -85z"/>
<path d="M154 2967 c-3 -8 -4 -47 -2 -88 l3 -74 87 -3 87 -3 3 -87 3 -87 177
-3 177 -2 3 -88 3 -87 177 -3 177 -2 3 -88 3 -87 265 0 265 0 0 85 0 85 -267
3 -268 2 0 90 0 90 -180 0 -181 0 3 88 3 87 178 3 177 2 0 90 0 90 -445 0
c-364 0 -447 -2 -451 -13z"/>
<path d="M155 1708 c-3 -13 -5 -53 -3 -88 l3 -65 88 -3 88 -3 -3 88 -3 88 -82
3 c-79 3 -83 2 -88 -20z"/>
<path d="M157 1363 c-4 -3 -7 -282 -7 -618 0 -505 2 -615 14 -624 9 -8 182
-10 627 -9 l614 3 0 625 0 625 -621 3 c-341 1 -624 -1 -627 -5z m1068 -623 l0
-445 -445 0 -445 0 -3 435 c-1 239 0 441 3 448 3 10 98 12 447 10 l443 -3 0
-445z"/>
<path d="M515 997 c-3 -7 -4 -127 -3 -267 l3 -255 265 0 265 0 3 268 2 267
-265 0 c-205 0 -267 -3 -270 -13z"/>
<path d="M5370 10 c-11 -7 0 -10 38 -10 28 0 52 5 52 10 0 13 -70 13 -90 0z"/>
</g>
</svg>
