<?xml version="1.0" standalone="no"?>
<!DOCTYPE svg PUBLIC "-//W3C//DTD SVG 20010904//EN"
 "http://www.w3.org/TR/2001/REC-SVG-20010904/DTD/svg10.dtd">
<svg version="1.0" xmlns="http://www.w3.org/2000/svg"
 width="264.000000pt" height="264.000000pt" viewBox="0 0 264.000000 264.000000"
 preserveAspectRatio="xMidYMid meet">
<metadata>
Created by potrace 1.15, written by Peter Selinger 2001-2017
</metadata>
<g transform="translate(0.000000,264.000000) scale(0.100000,-0.100000)"
fill="#000000" stroke="none">
<path d="M0 2360 l0 -280 280 0 280 0 0 280 0 280 -280 0 -280 0 0 -280z m480
0 l0 -200 -200 0 -200 0 0 200 0 200 200 0 200 0 0 -200z"/>
<path d="M160 2360 l0 -120 120 0 120 0 0 120 0 120 -120 0 -120 0 0 -120z"/>
<path d="M640 2600 l0 -40 40 0 40 0 0 -80 0 -80 -40 0 -40 0 0 -200 0 -200
-80 0 -80 0 0 -40 0 -40 -40 0 -40 0 0 40 0 40 -40 0 -40 0 0 -40 0 -40 -40 0
-40 0 0 -40 0 -40 80 0 80 0 0 -40 0 -40 80 0 80 0 0 -40 0 -40 -40 0 -40 0 0
-40 0 -40 -40 0 -40 0 0 40 0 40 -40 0 -40 0 0 -40 0 -40 40 0 40 0 0 -40 0
-40 -120 0 -120 0 0 40 0 40 -80 0 -80 0 0 -40 0 -40 40 0 40 0 0 -80 0 -80
-40 0 -40 0 0 -40 0 -40 40 0 40 0 0 -40 0 -40 40 0 40 0 0 80 0 80 40 0 40 0
0 -40 0 -40 40 0 40 0 0 40 0 40 40 0 40 0 0 80 0 80 40 0 40 0 0 -40 0 -40
40 0 40 0 0 -40 0 -40 -40 0 -40 0 0 -40 0 -40 40 0 40 0 0 40 0 40 40 0 40 0
0 -40 0 -40 40 0 40 0 0 -80 0 -80 40 0 40 0 0 80 0 80 160 0 160 0 0 40 0 40
-120 0 -120 0 0 80 0 80 40 0 40 0 0 -40 0 -40 80 0 80 0 0 40 0 40 -80 0 -80
0 0 80 0 80 -40 0 -40 0 0 40 0 40 80 0 80 0 0 40 0 40 80 0 80 0 0 -40 0 -40
-40 0 -40 0 0 -40 0 -40 -40 0 -40 0 0 -40 0 -40 80 0 80 0 0 40 0 40 40 0 40
0 0 40 0 40 40 0 40 0 0 -40 0 -40 40 0 40 0 0 -40 0 -40 -80 0 -80 0 0 -80 0
-80 40 0 40 0 0 -40 0 -40 -80 0 -80 0 0 -40 0 -40 40 0 40 0 0 -40 0 -40 -40
0 -40 0 0 -40 0 -40 -40 0 -40 0 0 40 0 40 -80 0 -80 0 0 -40 0 -40 -40 0 -40
0 0 -40 0 -40 40 0 40 0 0 -40 0 -40 40 0 40 0 0 40 0 40 40 0 40 0 0 -120 0
-120 -40 0 -40 0 0 40 0 40 -80 0 -80 0 0 -40 0 -40 -40 0 -40 0 0 -80 0 -80
120 0 120 0 0 -40 0 -40 40 0 40 0 0 -120 0 -120 40 0 40 0 0 40 0 40 120 0
120 0 0 -40 0 -40 40 0 40 0 0 -40 0 -40 -80 0 -80 0 0 40 0 40 -40 0 -40 0 0
-80 0 -80 40 0 40 0 0 -40 0 -40 -80 0 -80 0 0 80 0 80 -80 0 -80 0 0 120 0
120 -40 0 -40 0 0 40 0 40 -40 0 -40 0 0 -40 0 -40 -80 0 -80 0 0 240 0 240
-80 0 -80 0 0 40 0 40 -80 0 -80 0 0 40 0 40 120 0 120 0 0 40 0 40 -160 0
-160 0 0 -40 0 -40 -40 0 -40 0 0 -80 0 -80 -40 0 -40 0 0 40 0 40 -40 0 -40
0 0 -40 0 -40 -40 0 -40 0 0 -40 0 -40 80 0 80 0 0 -40 0 -40 40 0 40 0 0 40
0 40 40 0 40 0 0 -80 0 -80 -40 0 -40 0 0 -40 0 -40 160 0 160 0 0 40 0 40
-40 0 -40 0 0 40 0 40 80 0 80 0 0 -160 0 -160 40 0 40 0 0 -40 0 -40 -40 0
-40 0 0 -40 0 -40 40 0 40 0 0 -40 0 -40 40 0 40 0 0 40 0 40 -40 0 -40 0 0
40 0 40 120 0 120 0 0 -40 0 -40 -40 0 -40 0 0 -40 0 -40 40 0 40 0 0 -40 0
-40 -40 0 -40 0 0 -80 0 -80 40 0 40 0 0 80 0 80 80 0 80 0 0 -40 0 -40 -40 0
-40 0 0 -40 0 -40 240 0 240 0 0 40 0 40 40 0 40 0 0 -40 0 -40 40 0 40 0 0
40 0 40 40 0 40 0 0 -40 0 -40 80 0 80 0 0 80 0 80 40 0 40 0 0 -80 0 -80 40
0 40 0 0 40 0 40 40 0 40 0 0 -40 0 -40 160 0 160 0 0 40 0 40 -40 0 -40 0 0
40 0 40 -40 0 -40 0 0 40 0 40 -40 0 -40 0 0 -80 0 -80 -40 0 -40 0 0 120 0
120 80 0 80 0 0 80 0 80 40 0 40 0 0 40 0 40 -40 0 -40 0 0 80 0 80 -80 0 -80
0 0 40 0 40 40 0 40 0 0 40 0 40 40 0 40 0 0 -40 0 -40 40 0 40 0 0 -80 0 -80
40 0 40 0 0 -120 0 -120 -40 0 -40 0 0 -80 0 -80 80 0 80 0 0 40 0 40 40 0 40
0 0 40 0 40 -40 0 -40 0 0 120 0 120 40 0 40 0 0 80 0 80 -40 0 -40 0 0 -40 0
-40 -40 0 -40 0 0 80 0 80 -40 0 -40 0 0 80 0 80 -40 0 -40 0 0 40 0 40 120 0
120 0 0 40 0 40 40 0 40 0 0 80 0 80 -40 0 -40 0 0 40 0 40 -40 0 -40 0 0 -40
0 -40 -40 0 -40 0 0 80 0 80 40 0 40 0 0 40 0 40 -40 0 -40 0 0 40 0 40 -40 0
-40 0 0 40 0 40 -40 0 -40 0 0 -40 0 -40 -40 0 -40 0 0 80 0 80 40 0 40 0 0
40 0 40 80 0 80 0 0 40 0 40 -200 0 -200 0 0 -40 0 -40 -80 0 -80 0 0 40 0 40
40 0 40 0 0 40 0 40 40 0 40 0 0 40 0 40 -40 0 -40 0 0 -40 0 -40 -40 0 -40 0
0 80 0 80 -40 0 -40 0 0 -80 0 -80 -40 0 -40 0 0 40 0 40 -40 0 -40 0 0 40 0
40 40 0 40 0 0 40 0 40 40 0 40 0 0 40 0 40 40 0 40 0 0 -40 0 -40 40 0 40 0
0 -40 0 -40 40 0 40 0 0 80 0 80 -80 0 -80 0 0 80 0 80 -40 0 -40 0 0 40 0 40
-40 0 -40 0 0 -80 0 -80 -40 0 -40 0 0 40 0 40 -40 0 -40 0 0 40 0 40 -80 0
-80 0 0 -80 0 -80 40 0 40 0 0 40 0 40 40 0 40 0 0 -80 0 -80 -80 0 -80 0 0
-40 0 -40 40 0 40 0 0 -40 0 -40 40 0 40 0 0 -40 0 -40 -40 0 -40 0 0 -40 0
-40 -40 0 -40 0 0 80 0 80 -40 0 -40 0 0 -80 0 -80 -40 0 -40 0 0 120 0 120
40 0 40 0 0 80 0 80 -40 0 -40 0 0 -40 0 -40 -40 0 -40 0 0 40 0 40 -40 0 -40
0 0 80 0 80 -40 0 -40 0 0 -40 0 -40 -40 0 -40 0 0 -40 0 -40 -40 0 -40 0 0
80 0 80 -80 0 -80 0 0 -40z m400 -160 l0 -40 40 0 40 0 0 -80 0 -80 -120 0
-120 0 0 40 0 40 40 0 40 0 0 40 0 40 -40 0 -40 0 0 40 0 40 80 0 80 0 0 -40z
m720 0 l0 -40 -40 0 -40 0 0 40 0 40 40 0 40 0 0 -40z m-960 -200 l0 -160 -40
0 -40 0 0 160 0 160 40 0 40 0 0 -160z m160 -120 l0 -40 40 0 40 0 0 40 0 40
40 0 40 0 0 -40 0 -40 40 0 40 0 0 -40 0 -40 40 0 40 0 0 -80 0 -80 -40 0 -40
0 0 40 0 40 -80 0 -80 0 0 -40 0 -40 -200 0 -200 0 0 40 0 40 40 0 40 0 0 40
0 40 40 0 40 0 0 -40 0 -40 80 0 80 0 0 80 0 80 -40 0 -40 0 0 40 0 40 40 0
40 0 0 -40z m640 0 l0 -40 40 0 40 0 0 -40 0 -40 -80 0 -80 0 0 -40 0 -40 160
0 160 0 0 -40 0 -40 -80 0 -80 0 0 -80 0 -80 40 0 40 0 0 40 0 40 40 0 40 0 0
-40 0 -40 40 0 40 0 0 -40 0 -40 40 0 40 0 0 80 0 80 -40 0 -40 0 0 40 0 40
40 0 40 0 0 40 0 40 80 0 80 0 0 -40 0 -40 -80 0 -80 0 0 -40 0 -40 40 0 40 0
0 -40 0 -40 40 0 40 0 0 -40 0 -40 40 0 40 0 0 40 0 40 40 0 40 0 0 -80 0 -80
-40 0 -40 0 0 -40 0 -40 -40 0 -40 0 0 -40 0 -40 -40 0 -40 0 0 -40 0 -40 -40
0 -40 0 0 -40 0 -40 80 0 80 0 0 -80 0 -80 80 0 80 0 0 -40 0 -40 -80 0 -80 0
0 40 0 40 -40 0 -40 0 0 40 0 40 -80 0 -80 0 0 -40 0 -40 40 0 40 0 0 -40 0
-40 40 0 40 0 0 -80 0 -80 -40 0 -40 0 0 -40 0 -40 -40 0 -40 0 0 -80 0 -80
-120 0 -120 0 0 -40 0 -40 -40 0 -40 0 0 -80 0 -80 40 0 40 0 0 40 0 40 40 0
40 0 0 40 0 40 80 0 80 0 0 -120 0 -120 -40 0 -40 0 0 -80 0 -80 -40 0 -40 0
0 80 0 80 40 0 40 0 0 40 0 40 -80 0 -80 0 0 -80 0 -80 -40 0 -40 0 0 80 0 80
-40 0 -40 0 0 80 0 80 -40 0 -40 0 0 40 0 40 -40 0 -40 0 0 -40 0 -40 -40 0
-40 0 0 40 0 40 40 0 40 0 0 40 0 40 80 0 80 0 0 -40 0 -40 40 0 40 0 0 80 0
80 -40 0 -40 0 0 80 0 80 40 0 40 0 0 -40 0 -40 40 0 40 0 0 -40 0 -40 40 0
40 0 0 80 0 80 -40 0 -40 0 0 40 0 40 -40 0 -40 0 0 40 0 40 -40 0 -40 0 0
-40 0 -40 -80 0 -80 0 0 -40 0 -40 40 0 40 0 0 -40 0 -40 -80 0 -80 0 0 40 0
40 -40 0 -40 0 0 80 0 80 40 0 40 0 0 40 0 40 40 0 40 0 0 40 0 40 40 0 40 0
0 -40 0 -40 40 0 40 0 0 40 0 40 40 0 40 0 0 40 0 40 -80 0 -80 0 0 160 0 160
40 0 40 0 0 40 0 40 40 0 40 0 0 40 0 40 -80 0 -80 0 0 40 0 40 -40 0 -40 0 0
40 0 40 40 0 40 0 0 80 0 80 40 0 40 0 0 40 0 40 40 0 40 0 0 -40z m240 -80
l0 -40 -40 0 -40 0 0 40 0 40 40 0 40 0 0 -40z m-1280 -160 l0 -40 -40 0 -40
0 0 40 0 40 40 0 40 0 0 -40z m240 -160 l0 -40 40 0 40 0 0 -80 0 -80 -40 0
-40 0 0 80 0 80 -40 0 -40 0 0 -40 0 -40 -40 0 -40 0 0 80 0 80 80 0 80 0 0
-40z m-240 -160 l0 -40 -40 0 -40 0 0 40 0 40 40 0 40 0 0 -40z m160 -80 l0
-40 40 0 40 0 0 -40 0 -40 -80 0 -80 0 0 80 0 80 40 0 40 0 0 -40z m1680 -160
l0 -40 80 0 80 0 0 -40 0 -40 -120 0 -120 0 0 -40 0 -40 -40 0 -40 0 0 120 0
120 80 0 80 0 0 -40z m-1360 -240 l0 -40 -40 0 -40 0 0 40 0 40 40 0 40 0 0
-40z m-640 -120 l0 -80 -40 0 -40 0 0 80 0 80 40 0 40 0 0 -80z m160 -40 l0
-40 -40 0 -40 0 0 40 0 40 40 0 40 0 0 -40z m560 -240 l0 -40 -40 0 -40 0 0
40 0 40 40 0 40 0 0 -40z m160 0 l0 -40 -40 0 -40 0 0 40 0 40 40 0 40 0 0
-40z m960 -160 l0 -120 -120 0 -120 0 0 120 0 120 120 0 120 0 0 -120z m320
-160 l0 -40 -40 0 -40 0 0 40 0 40 40 0 40 0 0 -40z m-480 -80 l0 -40 -40 0
-40 0 0 40 0 40 40 0 40 0 0 -40z m-560 -160 l0 -40 -40 0 -40 0 0 40 0 40 40
0 40 0 0 -40z"/>
<path d="M1600 1640 l0 -40 -40 0 -40 0 0 -120 0 -120 40 0 40 0 0 -40 0 -40
40 0 40 0 0 -40 0 -40 40 0 40 0 0 40 0 40 120 0 120 0 0 40 0 40 40 0 40 0 0
40 0 40 -80 0 -80 0 0 -40 0 -40 -40 0 -40 0 0 40 0 40 -40 0 -40 0 0 40 0 40
40 0 40 0 0 40 0 40 -40 0 -40 0 0 -40 0 -40 -40 0 -40 0 0 -40 0 -40 -40 0
-40 0 0 80 0 80 40 0 40 0 0 40 0 40 -40 0 -40 0 0 -40z"/>
<path d="M2000 1560 l0 -40 80 0 80 0 0 40 0 40 -80 0 -80 0 0 -40z"/>
<path d="M1840 1160 l0 -40 -40 0 -40 0 0 -80 0 -80 40 0 40 0 0 80 0 80 40 0
40 0 0 40 0 40 -40 0 -40 0 0 -40z"/>
<path d="M1280 1000 l0 -40 40 0 40 0 0 40 0 40 -40 0 -40 0 0 -40z"/>
<path d="M1920 920 l0 -40 -40 0 -40 0 0 -80 0 -80 -40 0 -40 0 0 -40 0 -40
40 0 40 0 0 40 0 40 40 0 40 0 0 40 0 40 40 0 40 0 0 80 0 80 -40 0 -40 0 0
-40z"/>
<path d="M2080 520 l0 -40 40 0 40 0 0 40 0 40 -40 0 -40 0 0 -40z"/>
<path d="M1200 2600 l0 -40 40 0 40 0 0 40 0 40 -40 0 -40 0 0 -40z"/>
<path d="M2080 2360 l0 -280 280 0 280 0 0 280 0 280 -280 0 -280 0 0 -280z
m480 0 l0 -200 -200 0 -200 0 0 200 0 200 200 0 200 0 0 -200z"/>
<path d="M2240 2360 l0 -120 120 0 120 0 0 120 0 120 -120 0 -120 0 0 -120z"/>
<path d="M1920 2520 l0 -40 40 0 40 0 0 40 0 40 -40 0 -40 0 0 -40z"/>
<path d="M0 1920 l0 -80 40 0 40 0 0 -40 0 -40 -40 0 -40 0 0 -40 0 -40 120 0
120 0 0 40 0 40 -40 0 -40 0 0 80 0 80 -40 0 -40 0 0 40 0 40 -40 0 -40 0 0
-80z"/>
<path d="M2560 1960 l0 -40 40 0 40 0 0 40 0 40 -40 0 -40 0 0 -40z"/>
<path d="M2560 1680 l0 -80 40 0 40 0 0 80 0 80 -40 0 -40 0 0 -80z"/>
<path d="M2480 1000 l0 -40 40 0 40 0 0 40 0 40 -40 0 -40 0 0 -40z"/>
<path d="M0 680 l0 -40 80 0 80 0 0 40 0 40 -80 0 -80 0 0 -40z"/>
<path d="M0 280 l0 -280 280 0 280 0 0 280 0 280 -280 0 -280 0 0 -280z m480
0 l0 -200 -200 0 -200 0 0 200 0 200 200 0 200 0 0 -200z"/>
<path d="M160 280 l0 -120 120 0 120 0 0 120 0 120 -120 0 -120 0 0 -120z"/>
<path d="M640 40 l0 -40 80 0 80 0 0 40 0 40 -80 0 -80 0 0 -40z"/>
<path d="M2560 40 l0 -40 40 0 40 0 0 40 0 40 -40 0 -40 0 0 -40z"/>
</g>
</svg>
